<svg width="170" height="33" viewBox="0 0 170 33" fill="none" xmlns="http://www.w3.org/2000/svg">
<g id="LogoVip 1" clip-path="url(#clip0_8348_2229)">
<g id="Group">
<path id="Vector" d="M58.6027 16.8384C58.6027 20.1384 57.7358 22.6768 56.0887 24.4537C54.3549 26.2307 52.0142 27.0768 48.8067 27.0768C45.6858 27.0768 43.2585 26.146 41.5247 24.3691C39.8776 22.5922 39.0107 20.0537 39.0107 16.6691C39.0107 13.3691 39.8776 10.8307 41.5247 9.05374C43.1718 7.27682 45.5992 6.43066 48.8067 6.43066C51.9276 6.43066 54.3549 7.27682 56.002 9.05374C57.7358 10.9153 58.6027 13.4537 58.6027 16.8384ZM43.6053 16.8384C43.6053 19.0384 44.0387 20.7307 44.9056 21.9153C45.7725 23.0153 47.0729 23.6076 48.8067 23.6076C52.2743 23.6076 54.0081 21.323 54.0081 16.8384C54.0081 12.3537 52.2743 10.0691 48.8067 10.0691C47.0729 10.0691 45.7725 10.6614 44.9056 11.7614C44.0387 12.8614 43.6053 14.5537 43.6053 16.8384Z" fill="url(#paint0_linear_8348_2229)"/>
<path id="Vector_2" d="M66.2315 26.8232L60.2498 11.5078H64.7577L67.7919 20.2232C68.1386 21.154 68.312 22.254 68.3987 23.354H68.4854C68.5721 22.3386 68.7455 21.2386 69.0922 20.2232L72.1264 11.5078H76.6343L70.6527 26.8232H66.2315Z" fill="url(#paint1_linear_8348_2229)"/>
<path id="Vector_3" d="M85.9969 27.077C83.4829 27.077 81.489 26.4001 80.102 25.0462C78.7149 23.6924 77.9347 21.7462 77.9347 19.2924C77.9347 16.7539 78.6282 14.7231 79.9286 13.3693C81.2289 11.9308 83.0494 11.2539 85.3901 11.2539C87.644 11.2539 89.2911 11.8462 90.5915 13.1154C91.8052 14.3847 92.412 16.077 92.412 18.1924V20.2231H82.2692C82.3559 21.4078 82.7027 22.3385 83.3095 23.0154C84.003 23.6924 84.9566 24.0308 86.1703 24.0308C87.1239 24.0308 87.9908 23.9462 88.8577 23.777C89.7246 23.6078 90.5915 23.2693 91.4584 22.8462V26.0616C90.6782 26.4001 89.898 26.7385 89.0311 26.9078C88.2509 26.9924 87.2106 27.077 85.9969 27.077ZM85.3901 14.2154C84.5232 14.2154 83.743 14.4693 83.2228 15.0616C82.7027 15.6539 82.4426 16.4154 82.3559 17.4308H88.3375C88.3375 16.4154 88.0775 15.5693 87.4706 15.0616C87.0372 14.4693 86.257 14.2154 85.3901 14.2154Z" fill="url(#paint2_linear_8348_2229)"/>
<path id="Vector_4" d="M104.635 11.2539C105.242 11.2539 105.676 11.2539 106.109 11.3385L105.762 15.2308C105.416 15.1462 104.982 15.0616 104.462 15.0616C103.075 15.0616 102.035 15.4001 101.254 16.077C100.474 16.7539 100.127 17.6847 100.127 18.9539V26.7385H95.8796V11.5078H99.0872L99.694 14.0462H99.8674C100.388 13.2001 100.994 12.5231 101.861 11.9308C102.728 11.5078 103.682 11.2539 104.635 11.2539Z" fill="url(#paint3_linear_8348_2229)"/>
<path id="Vector_5" d="M117.032 15.5693H125.181V25.977C123.881 26.4001 122.58 26.6539 121.453 26.8232C120.326 26.9924 119.113 27.077 117.899 27.077C114.778 27.077 112.437 26.2309 110.79 24.4539C109.143 22.677 108.363 20.1386 108.363 16.8386C108.363 13.6232 109.317 11.0847 111.224 9.30779C113.131 7.53087 115.732 6.6001 119.113 6.6001C121.193 6.6001 123.274 7.02317 125.181 7.86933L123.707 11.2539C122.234 10.4924 120.673 10.1539 119.026 10.1539C117.119 10.1539 115.645 10.7463 114.518 12.0155C113.391 13.2847 112.784 14.8924 112.784 17.0078C112.784 19.2078 113.218 20.8155 114.171 22.0001C115.125 23.1847 116.425 23.6924 118.159 23.6924C119.026 23.6924 119.98 23.6078 120.933 23.4386V19.2924H117.032V15.5693Z" fill="url(#paint4_linear_8348_2229)"/>
<path id="Vector_6" d="M143.993 19.123C143.993 21.5769 143.299 23.6077 141.999 24.9615C140.612 26.4 138.791 27.0769 136.364 27.0769C134.89 27.0769 133.503 26.7384 132.376 26.1461C131.249 25.4692 130.382 24.5384 129.689 23.3538C129.082 22.1692 128.735 20.7307 128.735 19.123C128.735 16.5846 129.429 14.6384 130.729 13.2846C132.03 11.9307 133.937 11.1692 136.364 11.1692C137.838 11.1692 139.225 11.5077 140.352 12.1C141.479 12.7769 142.346 13.623 143.039 14.8923C143.646 16.1615 143.993 17.5153 143.993 19.123ZM133.157 19.123C133.157 20.6461 133.417 21.7461 133.937 22.5923C134.457 23.3538 135.237 23.7769 136.451 23.7769C137.578 23.7769 138.445 23.3538 138.878 22.5923C139.398 21.8307 139.658 20.6461 139.658 19.123C139.658 17.6 139.398 16.5 138.878 15.7384C138.358 14.9769 137.578 14.6384 136.364 14.6384C135.237 14.6384 134.37 14.9769 133.937 15.7384C133.417 16.5 133.157 17.6 133.157 19.123Z" fill="url(#paint5_linear_8348_2229)"/>
<path id="Vector_7" d="M151.795 26.8231H147.547V5.5H151.795V26.8231Z" fill="url(#paint6_linear_8348_2229)"/>
<path id="Vector_8" d="M161.244 27.0769C159.424 27.0769 157.95 26.4 156.91 24.9615C155.869 23.5231 155.349 21.6615 155.349 19.1231C155.349 16.5846 155.869 14.6385 156.996 13.2846C158.037 11.8462 159.51 11.1692 161.418 11.1692C163.412 11.1692 164.885 11.9308 165.926 13.4538H166.099C165.926 12.3538 165.752 11.2538 165.752 10.4077V5.5H170.087V26.8231H166.792L165.926 24.8769H165.752C164.712 26.4 163.238 27.0769 161.244 27.0769ZM162.718 23.7769C163.845 23.7769 164.625 23.4385 165.145 22.8462C165.665 22.2538 165.926 21.1538 166.012 19.7154V19.2923C166.012 17.6846 165.752 16.5 165.232 15.7385C164.712 15.0615 163.845 14.6385 162.718 14.6385C161.764 14.6385 160.984 15.0615 160.464 15.8231C159.944 16.5846 159.684 17.7692 159.684 19.2923C159.684 20.8154 159.944 21.9154 160.464 22.6769C160.984 23.4385 161.764 23.7769 162.718 23.7769Z" fill="url(#paint7_linear_8348_2229)"/>
</g>
<g id="Group_2">
<path id="Vector_9" d="M6.58847 29.7846C9.18918 30.5462 11.8766 30.8 14.564 30.5461C19.2453 30.0385 23.3197 28.4308 26.3539 24.7923C31.5553 18.6154 29.9949 8.54615 21.7593 4.65384C20.4589 4.06153 19.1586 3.63846 17.7715 3.46923C12.9169 2.53846 7.62875 4.82307 5.20142 8.8C3.5543 11.5077 3.03416 14.4692 3.81437 17.6C4.68128 20.9846 6.67516 23.3538 10.2295 24.2846C12.31 24.8769 14.3906 24.6231 16.4712 24.0308C18.6384 23.4385 20.3722 22.3385 21.4992 20.3923C21.9327 19.6308 22.2794 18.8692 22.4528 18.0231C22.5395 17.6 22.4528 17.5154 22.0194 17.5154C20.2856 17.5154 18.5518 17.5154 16.9046 17.5154C16.4712 17.5154 16.2978 17.4308 16.3845 17.0077C16.3845 16.3308 16.3845 15.5692 16.3845 14.8923C16.3845 14.6385 16.4712 14.4692 16.8179 14.4692C19.7654 14.4692 22.7996 14.4692 25.7471 14.4692C26.0071 14.4692 26.1805 14.5538 26.1805 14.8923C26.0938 17.0077 25.7471 19.1231 24.7935 21.0692C24.2733 22.0846 23.7532 23.0154 22.973 23.8615C20.719 26.3154 17.9449 27.4154 14.564 27.6692C10.6629 27.9231 7.1953 26.9923 4.24782 24.3692C1.12697 21.5769 -0.26008 18.0231 0.0866822 13.8769C0.520135 8.8 3.03416 5.07692 7.1953 2.45384C12.4834 -0.930773 20.0255 -0.846157 25.1402 2.70769C30.6884 6.43077 33.2024 11.5923 32.5956 18.1077C32.4222 20.2231 31.7287 22.2538 30.6884 24.1154C29.4747 26.2308 27.9143 28.0923 25.8337 29.5308C22.3661 31.9 18.6384 33 14.3906 32.5769C11.5298 32.3231 8.92911 31.3923 6.58847 29.7846Z" fill="url(#paint8_linear_8348_2229)"/>
<path id="Vector_10" d="M25.1402 10.9154C23.9265 10.9154 22.7129 10.9154 21.4992 10.9154C21.2391 10.9154 21.1524 10.7462 20.9791 10.6616C18.6384 8.80005 15.4309 8.5462 12.9168 10.1539C10.4028 11.8462 9.27585 14.8077 10.2294 17.6847C10.6629 19.0385 11.5298 20.1385 12.8302 20.9847C13.0035 21.0693 13.0902 21.1539 13.2636 21.3231C13.2636 21.3231 13.2636 21.3231 13.2636 21.4077C11.183 21.7462 8.92909 20.6462 7.8888 18.7C6.50175 16.077 6.67513 13.3693 8.06218 10.8308C9.53592 8.03851 11.9633 6.51543 15.1708 6.17697C19.3319 5.7539 22.5395 7.19236 24.8801 10.577C24.9668 10.6616 24.9668 10.7462 25.0535 10.8308C25.1402 10.7462 25.1402 10.8308 25.1402 10.9154Z" fill="url(#paint9_linear_8348_2229)"/>
</g>
</g>
<defs>
<linearGradient id="paint0_linear_8348_2229" x1="39.1676" y1="16.0078" x2="150.365" y2="25.6777" gradientUnits="userSpaceOnUse">
<stop stop-color="#E1B133"/>
<stop offset="1" stop-color="#C19420"/>
</linearGradient>
<linearGradient id="paint1_linear_8348_2229" x1="39.124" y1="16.5099" x2="150.321" y2="26.1799" gradientUnits="userSpaceOnUse">
<stop stop-color="#E1B133"/>
<stop offset="1" stop-color="#C19420"/>
</linearGradient>
<linearGradient id="paint2_linear_8348_2229" x1="39.2259" y1="15.3369" x2="150.423" y2="25.0069" gradientUnits="userSpaceOnUse">
<stop stop-color="#E1B133"/>
<stop offset="1" stop-color="#C19420"/>
</linearGradient>
<linearGradient id="paint3_linear_8348_2229" x1="39.3438" y1="13.9812" x2="150.541" y2="23.6512" gradientUnits="userSpaceOnUse">
<stop stop-color="#E1B133"/>
<stop offset="1" stop-color="#C19420"/>
</linearGradient>
<linearGradient id="paint4_linear_8348_2229" x1="39.6644" y1="10.2945" x2="150.862" y2="19.9644" gradientUnits="userSpaceOnUse">
<stop stop-color="#E1B133"/>
<stop offset="1" stop-color="#C19420"/>
</linearGradient>
<linearGradient id="paint5_linear_8348_2229" x1="39.5889" y1="11.1618" x2="150.786" y2="20.8318" gradientUnits="userSpaceOnUse">
<stop stop-color="#E1B133"/>
<stop offset="1" stop-color="#C19420"/>
</linearGradient>
<linearGradient id="paint6_linear_8348_2229" x1="39.9422" y1="7.09745" x2="151.14" y2="16.7675" gradientUnits="userSpaceOnUse">
<stop stop-color="#E1B133"/>
<stop offset="1" stop-color="#C19420"/>
</linearGradient>
<linearGradient id="paint7_linear_8348_2229" x1="40.0439" y1="5.93162" x2="151.241" y2="15.6016" gradientUnits="userSpaceOnUse">
<stop stop-color="#E1B133"/>
<stop offset="1" stop-color="#C19420"/>
</linearGradient>
<linearGradient id="paint8_linear_8348_2229" x1="-13.8808" y1="-0.892018" x2="58.0177" y2="42.5645" gradientUnits="userSpaceOnUse">
<stop stop-color="#E1B133"/>
<stop offset="1" stop-color="#C19420"/>
</linearGradient>
<linearGradient id="paint9_linear_8348_2229" x1="-12.875" y1="-2.55584" x2="59.0233" y2="40.9005" gradientUnits="userSpaceOnUse">
<stop stop-color="#E1B133"/>
<stop offset="1" stop-color="#C19420"/>
</linearGradient>
<clipPath id="clip0_8348_2229">
<rect width="170" height="33" fill="white"/>
</clipPath>
</defs>
</svg>
